<?xml version="1.0" encoding="utf-8"?>
<!-- Generator: Adobe Illustrator 19.0.0, SVG Export Plug-In . SVG Version: 6.00 Build 0)  -->
<svg version="1.1" id="图层_1" xmlns="http://www.w3.org/2000/svg" xmlns:xlink="http://www.w3.org/1999/xlink" x="0px" y="0px"
	 viewBox="0 0 240.3 220.3" style="enable-background:new 0 0 240.3 220.3;" xml:space="preserve">
<style type="text/css">
	.st0{clip-path:url(#SVGID_2_);}
	.st1{opacity:5.000310e-002;clip-path:url(#SVGID_4_);}
	.st2{clip-path:url(#SVGID_6_);fill:#00CC8F;}
	.st3{opacity:0.9;clip-path:url(#SVGID_4_);}
	.st4{clip-path:url(#SVGID_8_);fill:#00CC8F;}
	.st5{clip-path:url(#SVGID_10_);fill:#00CC8F;}
	.st6{clip-path:url(#SVGID_4_);fill:#8EEDC6;}
	.st7{clip-path:url(#SVGID_4_);fill:#FFFFFF;}
	.st8{clip-path:url(#SVGID_12_);fill:#00CC8F;}
	.st9{opacity:0.1;clip-path:url(#SVGID_4_);}
	.st10{clip-path:url(#SVGID_14_);fill:#FFFFFF;}
</style>
<g>
	<defs>
		<rect id="SVGID_1_" width="240.3" height="220.3"/>
	</defs>
	<clipPath id="SVGID_2_">
		<use xlink:href="#SVGID_1_"  style="overflow:visible;"/>
	</clipPath>
	<g class="st0">
		<defs>
			<rect id="SVGID_3_" width="240.3" height="220.3"/>
		</defs>
		<clipPath id="SVGID_4_">
			<use xlink:href="#SVGID_3_"  style="overflow:visible;"/>
		</clipPath>
		<g class="st1">
			<g>
				<defs>
					<rect id="SVGID_5_" x="19.1" width="209.7" height="220.3"/>
				</defs>
				<clipPath id="SVGID_6_">
					<use xlink:href="#SVGID_5_"  style="overflow:visible;"/>
				</clipPath>
				<path class="st2" d="M223.8,89.5c-13-51.1-57.9-88-110.6-89.4C85.4-0.7,56,8.5,34.7,40.8c-38.1,57.8,2.3,97.7,30.6,116.7
					c13.6,9.2,25.9,20.2,36.5,32.8c19.1,22.6,55.8,50.7,99.4,6.7C232.9,165.1,232.4,123.5,223.8,89.5"/>
			</g>
		</g>
		<g class="st3">
			<g>
				<defs>
					<rect id="SVGID_7_" y="30.1" width="10" height="10"/>
				</defs>
				<clipPath id="SVGID_8_">
					<use xlink:href="#SVGID_7_"  style="overflow:visible;"/>
				</clipPath>
				<path class="st4" d="M10,35.1c0,2.8-2.2,5-5,5c-2.8,0-5-2.2-5-5c0-2.8,2.2-5,5-5C7.8,30.1,10,32.3,10,35.1"/>
			</g>
		</g>
		<g class="st3">
			<g>
				<defs>
					<rect id="SVGID_9_" x="197.4" y="6.7" width="19" height="19"/>
				</defs>
				<clipPath id="SVGID_10_">
					<use xlink:href="#SVGID_9_"  style="overflow:visible;"/>
				</clipPath>
				<path class="st5" d="M216.4,16.2c0,5.2-4.3,9.5-9.5,9.5c-5.2,0-9.5-4.3-9.5-9.5c0-5.2,4.3-9.5,9.5-9.5
					C212.2,6.7,216.4,10.9,216.4,16.2"/>
			</g>
		</g>
		<path class="st6" d="M221.8,165.4H23.9v-105c0-4.6,3.7-8.4,8.4-8.4h181.2c4.6,0,8.4,3.8,8.4,8.4V165.4z"/>
		<path class="st6" d="M238.8,165.4H120.5h-2.9H8c-1.9,0-1.5,3-1.5,3c0.4,5,25.3,5.4,25.3,5.4h85.7h2.9H215c0,0,24.9-0.5,25.3-5.4
			C240.3,168.4,240.8,165.4,238.8,165.4"/>
		<path class="st7" d="M212.3,162.7H33.5c-1.4,0-2.6-1.1-2.6-2.6V61.3c0-1.4,1.1-2.6,2.6-2.6h178.8c1.4,0,2.6,1.1,2.6,2.6v98.8
			C214.8,161.5,213.7,162.7,212.3,162.7"/>
		<g class="st3">
			<g>
				<defs>
					<rect id="SVGID_11_" x="90.2" y="76.9" width="67.4" height="67.4"/>
				</defs>
				<clipPath id="SVGID_12_">
					<use xlink:href="#SVGID_11_"  style="overflow:visible;"/>
				</clipPath>
				<path class="st8" d="M157.7,110.7c0,18.6-15.1,33.7-33.7,33.7c-18.6,0-33.7-15.1-33.7-33.7c0-18.6,15.1-33.7,33.7-33.7
					C142.6,76.9,157.7,92,157.7,110.7"/>
			</g>
		</g>
		<path class="st7" d="M106.2,94.4c-8.4,8.4-8.4,21.9-0.1,30.2c7.9,7.9,20.6,8.2,29,1l5.8,5.8c1,1,2.6,1,3.6,0l0.5-0.5
			c1-1,1-2.6,0-3.6l-6.1-6.1c5.6-8.3,4.7-19.6-2.6-26.9C128.1,86,114.6,86.1,106.2,94.4 M108.5,96.6c7.1-7.1,18.6-7.2,25.7-0.1l0,0
			c7.1,7.1,7,18.6-0.1,25.7c-7.1,7.1-18.6,7.2-25.7,0.1C101.3,115.3,101.4,103.8,108.5,96.6"/>
		<path class="st7" d="M135.4,95.9c-7.4-7.4-19.5-7.4-27,0.1c-7.5,7.5-7.5,19.5-0.1,27c7.4,7.4,19.5,7.4,27-0.1
			C142.8,115.4,142.8,103.3,135.4,95.9 M132.5,120.7c-6.3,6.3-16.4,6.3-22.6,0.1c-6.2-6.2-6.2-16.3,0.1-22.6
			c6.3-6.3,16.4-6.3,22.6-0.1C138.8,104.3,138.8,114.4,132.5,120.7"/>
		<g class="st9">
			<g>
				<defs>
					<rect id="SVGID_13_" x="105.3" y="93.5" width="31.9" height="31.9"/>
				</defs>
				<clipPath id="SVGID_14_">
					<use xlink:href="#SVGID_13_"  style="overflow:visible;"/>
				</clipPath>
				<path class="st10" d="M109.9,120.8c6.2,6.2,16.3,6.2,22.6-0.1c6.3-6.3,6.3-16.4,0.1-22.6c-6.2-6.2-16.3-6.2-22.6,0.1
					C103.8,104.5,103.7,114.6,109.9,120.8"/>
			</g>
		</g>
	</g>
</g>
</svg>
