<?xml version="1.0" encoding="utf-8"?>
<!-- Generator: Adobe Illustrator 19.0.0, SVG Export Plug-In . SVG Version: 6.00 Build 0)  -->
<svg version="1.1" id="图层_1" xmlns="http://www.w3.org/2000/svg" xmlns:xlink="http://www.w3.org/1999/xlink" x="0px" y="0px"
	 viewBox="0 0 240.3 220.3" style="enable-background:new 0 0 240.3 220.3;" xml:space="preserve">
<style type="text/css">
	.st0{clip-path:url(#SVGID_2_);}
	.st1{opacity:5.000310e-002;clip-path:url(#SVGID_4_);}
	.st2{clip-path:url(#SVGID_6_);fill:#00CC8F;}
	.st3{opacity:0.9;clip-path:url(#SVGID_4_);}
	.st4{clip-path:url(#SVGID_8_);fill:#00CC8F;}
	.st5{clip-path:url(#SVGID_10_);fill:#00CC8F;}
	.st6{clip-path:url(#SVGID_4_);fill:#8EEDC6;}
	.st7{clip-path:url(#SVGID_4_);fill:#FFFFFF;}
	.st8{clip-path:url(#SVGID_12_);fill:#00CC8F;}
</style>
<g>
	<defs>
		<rect id="SVGID_1_" width="240.3" height="220.3"/>
	</defs>
	<clipPath id="SVGID_2_">
		<use xlink:href="#SVGID_1_"  style="overflow:visible;"/>
	</clipPath>
	<g class="st0">
		<defs>
			<rect id="SVGID_3_" width="240.3" height="220.3"/>
		</defs>
		<clipPath id="SVGID_4_">
			<use xlink:href="#SVGID_3_"  style="overflow:visible;"/>
		</clipPath>
		<g class="st1">
			<g>
				<defs>
					<rect id="SVGID_5_" x="19.1" width="209.7" height="220.3"/>
				</defs>
				<clipPath id="SVGID_6_">
					<use xlink:href="#SVGID_5_"  style="overflow:visible;"/>
				</clipPath>
				<path class="st2" d="M223.8,89.5c-13-51.1-57.9-88-110.6-89.4C85.4-0.7,56,8.5,34.7,40.8c-38.1,57.8,2.3,97.7,30.6,116.7
					c13.6,9.2,25.9,20.2,36.5,32.8c19.1,22.6,55.8,50.7,99.4,6.7C232.9,165.1,232.4,123.5,223.8,89.5"/>
			</g>
		</g>
		<g class="st3">
			<g>
				<defs>
					<rect id="SVGID_7_" y="30.1" width="10" height="10"/>
				</defs>
				<clipPath id="SVGID_8_">
					<use xlink:href="#SVGID_7_"  style="overflow:visible;"/>
				</clipPath>
				<path class="st4" d="M10,35.1c0,2.8-2.2,5-5,5c-2.8,0-5-2.2-5-5c0-2.8,2.2-5,5-5C7.8,30.1,10,32.3,10,35.1"/>
			</g>
		</g>
		<g class="st3">
			<g>
				<defs>
					<rect id="SVGID_9_" x="197.4" y="6.7" width="19" height="19"/>
				</defs>
				<clipPath id="SVGID_10_">
					<use xlink:href="#SVGID_9_"  style="overflow:visible;"/>
				</clipPath>
				<path class="st5" d="M216.4,16.2c0,5.2-4.3,9.5-9.5,9.5c-5.2,0-9.5-4.3-9.5-9.5c0-5.2,4.3-9.5,9.5-9.5
					C212.2,6.7,216.4,10.9,216.4,16.2"/>
			</g>
		</g>
		<path class="st6" d="M221.8,165.4H23.9v-105c0-4.6,3.7-8.4,8.4-8.4h181.2c4.6,0,8.4,3.7,8.4,8.4V165.4z"/>
		<path class="st6" d="M238.8,165.4H120.5h-2.9H8c-1.9,0-1.5,3-1.5,3c0.4,5,25.3,5.4,25.3,5.4h85.7h2.9H215c0,0,24.9-0.5,25.3-5.4
			C240.3,168.4,240.8,165.4,238.8,165.4"/>
		<path class="st7" d="M212.3,162.7H33.5c-1.4,0-2.6-1.1-2.6-2.6V61.3c0-1.4,1.1-2.6,2.6-2.6h178.8c1.4,0,2.6,1.1,2.6,2.6v98.8
			C214.8,161.5,213.7,162.7,212.3,162.7"/>
		<g class="st3">
			<g>
				<defs>
					<rect id="SVGID_11_" x="90.2" y="76.9" width="67.4" height="67.4"/>
				</defs>
				<clipPath id="SVGID_12_">
					<use xlink:href="#SVGID_11_"  style="overflow:visible;"/>
				</clipPath>
				<path class="st8" d="M157.7,110.7c0,18.6-15.1,33.7-33.7,33.7c-18.6,0-33.7-15.1-33.7-33.7c0-18.6,15.1-33.7,33.7-33.7
					C142.6,76.9,157.7,92,157.7,110.7"/>
			</g>
		</g>
		<path class="st7" d="M134.7,129.4H111c-3.8,0-6.9-3-6.9-6.7V98.7c0-3.7,3.1-6.7,6.9-6.7h23.7c3.8,0,6.9,3,6.9,6.7v24.1
			C141.6,126.4,138.5,129.4,134.7,129.4 M130.9,95.3h-16v8.8c0,0.4,0.4,0.8,0.8,0.8h14.4c0.4,0,0.8-0.4,0.8-0.8V95.3z M138.2,98.7
			c0-0.9-0.4-1.8-1-2.4c-0.7-0.6-1.5-1-2.5-1h-0.4v8.8c0,2.2-1.9,4.1-4.2,4.1h-14.4c-2.3,0-4.2-1.8-4.2-4.1v-8.8H111
			c-0.9,0-1.8,0.4-2.5,1c-0.7,0.6-1,1.5-1,2.4v24.1c0,0.9,0.4,1.8,1,2.4c0.7,0.6,1.5,1,2.5,1h23.7c0.9,0,1.8-0.4,2.5-1
			c0.7-0.6,1-1.5,1-2.4V98.7z M126.9,104.3c-0.9,0-1.7-0.7-1.7-1.6v-5.3c0-0.9,0.8-1.6,1.7-1.6c0.9,0,1.7,0.7,1.7,1.6v5.3
			C128.6,103.6,127.8,104.3,126.9,104.3"/>
	</g>
</g>
</svg>
